HIERARCHY
ROOT root
{
	OFFSET 0.000000 0.000000 0.000000
	CHANNELS 6 Xposition Yposition Zposition Zrotation Yrotation Xrotation
	JOINT lhip
	{
		OFFSET 0.058581 -0.082280 -0.017664
		CHANNELS 3 Zrotation Yrotation Xrotation
		JOINT lknee
		{
			OFFSET 0.043451 -0.386469 0.008037
			CHANNELS 3 Zrotation Yrotation Xrotation
			JOINT lankle
			{
				OFFSET -0.014790 -0.426874 -0.037428
				CHANNELS 3 Zrotation Yrotation Xrotation
				JOINT ltoe
				{
					OFFSET 0.041054 -0.060286 0.122042
					CHANNELS 3 Zrotation Yrotation Xrotation
					End Site
					{
						OFFSET 0.000000 0.000000 0.000000
					}
				}
			}
		}
	}
	JOINT rhip
	{
		OFFSET -0.060310 -0.090513 -0.013543
		CHANNELS 3 Zrotation Yrotation Xrotation
		JOINT rknee
		{
			OFFSET -0.043257 -0.383688 -0.004843
			CHANNELS 3 Zrotation Yrotation Xrotation
			JOINT rankle
			{
				OFFSET 0.019056 -0.420046 -0.034562
				CHANNELS 3 Zrotation Yrotation Xrotation
				JOINT rtoe
				{
					OFFSET -0.034840 -0.062106 0.130323
					CHANNELS 3 Zrotation Yrotation Xrotation
					End Site
					{
						OFFSET 0.000000 0.000000 0.000000
					}
				}
			}
		}
	}
	JOINT lowerback
	{
		OFFSET 0.004439 0.124404 -0.038385
		CHANNELS 3 Zrotation Yrotation Xrotation
		JOINT upperback
		{
			OFFSET 0.004488 0.137956 0.026820
			CHANNELS 3 Zrotation Yrotation Xrotation
			JOINT chest
			{
				OFFSET -0.002265 0.056032 0.002855
				CHANNELS 3 Zrotation Yrotation Xrotation
				JOINT lowerneck
				{
					OFFSET -0.013390 0.211636 -0.033468
					CHANNELS 3 Zrotation Yrotation Xrotation
					JOINT upperneck
					{
						OFFSET 0.010113 0.088937 0.050410
						CHANNELS 3 Zrotation Yrotation Xrotation
						End Site
						{
							OFFSET 0.000000 0.000000 0.000000
						}
					}
				}
				JOINT lclavicle
				{
					OFFSET 0.071702 0.114000 -0.018898
					CHANNELS 3 Zrotation Yrotation Xrotation
					JOINT lshoulder
					{
						OFFSET 0.122921 0.045205 -0.019046
						CHANNELS 3 Zrotation Yrotation Xrotation
						JOINT lelbow
						{
							OFFSET 0.255332 -0.015649 -0.022946
							CHANNELS 3 Zrotation Yrotation Xrotation
							JOINT lwrist
							{
								OFFSET 0.265709 0.012698 -0.007375
								CHANNELS 3 Zrotation Yrotation Xrotation
								End Site
								{
									OFFSET 0.000000 0.000000 0.000000
								}
							}
						}
					}
				}
				JOINT rclavicle
				{
					OFFSET -0.082954 0.112472 -0.023707
					CHANNELS 3 Zrotation Yrotation Xrotation
					JOINT rshoulder
					{
						OFFSET -0.113228 0.046853 -0.008472
						CHANNELS 3 Zrotation Yrotation Xrotation
						JOINT relbow
						{
							OFFSET -0.260127 -0.014369 -0.031269
							CHANNELS 3 Zrotation Yrotation Xrotation
							JOINT rwrist
							{
								OFFSET -0.269108 0.006794 -0.006027
								CHANNELS 3 Zrotation Yrotation Xrotation
								End Site
								{
									OFFSET 0.000000 0.000000 0.000000
								}
							}
						}
					}
				}
			}
		}
	}
}
MOTION
Frames: 8
Frame Time: 0.033333
-0.417706 0.809451 0.768705 94.257241 1.516698 76.909852 4.436274 -2.690061 -31.597352 -17.876924 -5.131401 85.312493 10.413178 18.275467 -40.099622 0.000000 -0.000000 0.000000 -5.026716 -3.769238 -29.458912 6.852597 -0.109402 84.887473 4.285011 -12.679746 -40.943252 0.000000 -0.000000 0.000000 -0.498111 3.938817 30.113284 2.784835 -4.470813 0.498421 0.985450 -0.854574 5.587631 2.154725 -10.262953 -5.622622 6.568352 -18.046979 -6.250970 13.682443 -28.837226 -18.337608 -13.935529 -28.195751 -2.653122 5.382685 -62.033130 21.055413 20.228173 -7.359089 7.725991 -15.048317 28.229349 -18.960322 18.355938 28.412552 -5.532326 -9.109670 57.552066 15.617981 -7.608469 4.765736 9.912615 
-0.417324 0.808961 0.768210 94.391011 1.399453 76.818953 4.556111 -2.613099 -31.584757 -17.866585 -4.916912 85.324423 10.180954 17.741402 -40.161396 0.000000 -0.000000 0.000000 -5.301863 -3.850727 -29.370500 6.805227 -0.378273 85.033770 4.533447 -12.431073 -41.259296 0.000000 -0.000000 0.000000 -0.535796 4.041090 29.903432 2.991964 -4.510994 1.051769 0.701433 -0.982569 5.595395 2.627897 -9.293184 -4.938006 5.857291 -18.587626 -5.978367 13.493955 -28.592558 -17.898870 -13.412552 -28.217752 -3.031064 5.433762 -61.737596 20.957190 20.015996 -7.919582 7.867880 -14.468681 27.767734 -18.725645 17.723995 28.603164 -5.837419 -8.830865 57.107860 15.855784 -7.406681 4.984706 9.987945 
-0.416827 0.808115 0.768039 94.449676 1.322061 77.298313 4.719170 -2.338407 -32.145764 -17.932158 -4.749446 85.377525 10.215386 17.548592 -40.148932 0.000000 -0.000000 0.000000 -5.322700 -4.025664 -29.924215 6.679174 -0.471351 85.152632 4.521957 -12.265858 -41.155697 0.000000 -0.000000 0.000000 -0.568074 3.655668 30.435927 2.723688 -4.433047 -0.817840 0.681770 -0.758967 5.604369 2.139218 -9.367636 -2.905502 5.817694 -17.795476 -5.070052 13.117953 -28.343254 -17.122235 -14.038445 -27.964949 -2.730203 4.992608 -61.642029 21.936832 20.360205 -8.005961 7.357490 -14.339136 27.574547 -17.964376 18.535397 28.274348 -5.751075 -8.526150 56.950794 16.769952 -7.372718 4.763436 9.673067 
-0.417612 0.807628 0.767461 94.721875 1.303836 77.179886 5.022513 -2.275538 -32.192652 -18.191850 -4.381118 85.440611 10.299412 17.459281 -40.168808 0.000000 -0.000000 0.000000 -5.592115 -4.262933 -29.861227 6.833454 -0.879590 85.336782 4.552171 -12.281865 -41.314266 0.000000 -0.000000 0.000000 -0.524103 3.679102 30.714692 2.816336 -4.413593 -0.755181 0.718824 -0.833534 5.555497 2.032098 -8.217694 -1.951971 5.117981 -16.803564 -2.996904 12.897950 -28.322009 -16.985398 -14.049535 -27.814099 -2.878900 4.848482 -61.238152 22.012459 20.266973 -7.871486 8.017020 -14.178207 27.151348 -17.811260 18.188083 28.021586 -5.962145 -7.757908 56.543945 17.405858 -6.814201 4.479232 9.552381 
-0.417751 0.807412 0.766978 94.810923 1.265056 77.082461 5.181024 -2.221646 -32.178093 -18.278228 -4.175171 85.491805 10.217488 17.380511 -40.153828 0.000000 -0.000000 0.000000 -5.787704 -4.464609 -29.778826 6.990431 -1.035336 85.469187 4.525269 -12.181014 -41.369922 0.000000 -0.000000 0.000000 -0.518471 3.607290 30.645075 2.813226 -4.431807 -0.762011 0.618575 -0.860027 5.659781 1.956491 -7.263768 -0.536281 4.738185 -15.850461 -1.664572 12.638945 -28.271444 -16.698591 -14.005210 -27.857290 -2.773325 4.696792 -60.795216 21.859381 20.310173 -7.626208 7.952780 -13.665583 27.165132 -17.361223 17.509769 28.211502 -6.061709 -6.997713 55.941439 17.856134 -6.681751 4.534000 9.579359 
-0.418176 0.806938 0.766573 94.931666 1.212927 76.634469 5.304050 -2.002316 -31.872741 -18.511814 -4.028325 85.461028 10.303754 17.408921 -40.005965 0.000000 -0.000000 0.000000 -6.022851 -4.852983 -29.387085 6.989087 -1.219822 85.605455 4.404586 -12.118567 -41.427731 0.000000 -0.000000 0.000000 -0.390904 3.812049 30.723998 2.891450 -4.492628 -0.198554 0.577651 -0.929247 5.513419 1.915818 -5.692432 1.082907 3.972043 -14.312669 0.748215 12.518710 -28.796527 -16.170589 -13.763725 -27.615926 -3.082827 4.883103 -60.106936 21.582604 20.271922 -7.610649 7.989565 -13.481691 27.215015 -16.721789 16.904278 28.030815 -6.534301 -6.645254 55.393639 18.630906 -6.458366 4.414911 9.915228 
-0.418454 0.806527 0.766285 94.836109 1.201658 76.522861 5.619114 -1.511227 -31.971024 -18.564195 -3.820562 85.504065 10.403506 17.037420 -39.934481 0.000000 -0.000000 0.000000 -6.097133 -5.008767 -29.397331 6.933000 -1.337600 85.694094 4.464946 -11.874141 -41.463904 0.000000 -0.000000 0.000000 -0.272804 3.838201 30.916784 2.909109 -4.268718 -0.607841 0.557754 -0.908386 5.555878 1.861971 -3.859653 3.123990 3.056965 -12.504338 3.913428 12.236532 -28.841789 -15.826449 -14.303849 -27.858469 -3.084964 4.743615 -59.527361 21.886711 20.099779 -7.300518 8.624538 -13.087204 26.972408 -16.193457 16.672074 28.349733 -6.706169 -5.882241 54.622327 19.701914 -5.777445 4.101355 10.049052 
-0.419042 0.805863 0.766302 94.847083 1.207709 76.422839 5.812254 -1.216981 -31.996449 -18.676321 -3.747926 85.482782 10.517180 16.905374 -39.894149 0.000000 -0.000000 0.000000 -6.168895 -5.159713 -29.299258 7.022829 -1.428880 85.641872 4.424412 -11.690498 -41.433404 0.000000 -0.000000 0.000000 -0.183897 3.801083 31.007055 2.965182 -4.141103 -1.086128 0.568918 -0.959939 5.835280 1.890385 -2.264262 5.625858 2.319563 -10.671853 6.478964 12.134093 -28.546601 -15.616287 -15.188871 -28.509872 -3.017826 5.036501 -58.453476 21.514159 20.211618 -6.999613 8.582124 -13.028061 26.549194 -15.923858 16.827813 29.139087 -6.750789 -5.125736 53.561164 20.461930 -5.426281 4.117122 10.418869 
